<svg width="189" height="42" viewBox="0 0 189 42" fill="none" xmlns="http://www.w3.org/2000/svg">
<path d="M77.3971 31H72.59L64.55 18.8276V31H59.7429V11.2655H64.55L72.59 23.4942V11.2655H77.3971V31ZM86.8414 15.0887C87.9471 15.0887 88.9123 15.3136 89.7369 15.7634C90.5802 16.2132 91.2268 16.8036 91.6766 17.5345V15.3136H96.4837V30.9719C96.4837 32.415 96.1932 33.7175 95.6122 34.8794C95.05 36.0601 94.1785 36.9972 92.9978 37.6906C91.8359 38.384 90.3834 38.7307 88.6405 38.7307C86.3166 38.7307 84.4331 38.1779 82.99 37.0721C81.547 35.9852 80.7224 34.5046 80.5162 32.6305H85.2671C85.417 33.2302 85.7731 33.6987 86.3353 34.0361C86.8976 34.3922 87.591 34.5702 88.4156 34.5702C89.4089 34.5702 90.196 34.2797 90.777 33.6987C91.3767 33.1365 91.6766 32.2275 91.6766 30.9719V28.7511C91.208 29.482 90.5615 30.0817 89.7369 30.5502C88.9123 31 87.9471 31.2249 86.8414 31.2249C85.5482 31.2249 84.3769 30.8969 83.3274 30.241C82.2779 29.5663 81.4439 28.6199 80.8254 27.4017C80.2257 26.1648 79.9259 24.7404 79.9259 23.1287C79.9259 21.517 80.2257 20.102 80.8254 18.8838C81.4439 17.6657 82.2779 16.7286 83.3274 16.0727C84.3769 15.4167 85.5482 15.0887 86.8414 15.0887ZM91.6766 23.1568C91.6766 21.9574 91.3392 21.011 90.6646 20.3175C90.0086 19.6241 89.2027 19.2774 88.2469 19.2774C87.2911 19.2774 86.4759 19.6241 85.8012 20.3175C85.1453 20.9922 84.8173 21.9293 84.8173 23.1287C84.8173 24.3281 85.1453 25.2839 85.8012 25.9961C86.4759 26.6895 87.2911 27.0362 88.2469 27.0362C89.2027 27.0362 90.0086 26.6895 90.6646 25.9961C91.3392 25.3027 91.6766 24.3563 91.6766 23.1568ZM107.102 31.2249C105.565 31.2249 104.178 30.8969 102.941 30.241C101.723 29.585 100.758 28.648 100.046 27.4298C99.3523 26.2116 99.0056 24.7873 99.0056 23.1568C99.0056 21.5451 99.3617 20.1301 100.074 18.9119C100.786 17.675 101.761 16.7286 102.997 16.0727C104.234 15.4167 105.621 15.0887 107.158 15.0887C108.695 15.0887 110.082 15.4167 111.319 16.0727C112.555 16.7286 113.53 17.675 114.242 18.9119C114.954 20.1301 115.31 21.5451 115.31 23.1568C115.31 24.7686 114.945 26.1929 114.214 27.4298C113.502 28.648 112.518 29.585 111.262 30.241C110.025 30.8969 108.639 31.2249 107.102 31.2249ZM107.102 27.0644C108.02 27.0644 108.798 26.727 109.435 26.0523C110.091 25.3776 110.419 24.4125 110.419 23.1568C110.419 21.9012 110.1 20.936 109.463 20.2613C108.845 19.5866 108.076 19.2493 107.158 19.2493C106.221 19.2493 105.443 19.5866 104.825 20.2613C104.206 20.9172 103.897 21.8824 103.897 23.1568C103.897 24.4125 104.197 25.3776 104.797 26.0523C105.415 26.727 106.183 27.0644 107.102 27.0644ZM128.625 15.1169V19.1087H135.063V22.8195H128.625V27.1487H135.906V31H123.818V11.2655H135.906V15.1169H128.625ZM155.051 15.3136L145.211 38.4496H140.039L143.637 30.4659L137.256 15.3136H142.625L146.252 25.1246L149.85 15.3136H155.051ZM171.576 22.9038C171.576 23.3536 171.548 23.8221 171.491 24.3094H160.612C160.687 25.2839 160.996 26.0336 161.54 26.5583C162.102 27.0644 162.786 27.3174 163.592 27.3174C164.791 27.3174 165.625 26.8113 166.094 25.7993H171.21C170.948 26.8301 170.47 27.7578 169.777 28.5824C169.102 29.407 168.249 30.0536 167.218 30.5221C166.188 30.9906 165.035 31.2249 163.761 31.2249C162.224 31.2249 160.856 30.8969 159.656 30.241C158.457 29.585 157.52 28.648 156.845 27.4298C156.17 26.2116 155.833 24.7873 155.833 23.1568C155.833 21.5263 156.161 20.102 156.817 18.8838C157.492 17.6657 158.429 16.7286 159.628 16.0727C160.828 15.4167 162.205 15.0887 163.761 15.0887C165.279 15.0887 166.628 15.4073 167.809 16.0445C168.989 16.6817 169.908 17.5907 170.564 18.7714C171.238 19.9521 171.576 21.3296 171.576 22.9038ZM166.656 21.6388C166.656 20.8142 166.375 20.1582 165.813 19.671C165.251 19.1837 164.548 18.9401 163.704 18.9401C162.899 18.9401 162.214 19.1743 161.652 19.6428C161.109 20.1114 160.771 20.7767 160.64 21.6388H166.656ZM180.493 31.2249C179.125 31.2249 177.907 30.9906 176.839 30.5221C175.77 30.0536 174.927 29.4164 174.308 28.6105C173.69 27.7859 173.343 26.8676 173.268 25.8555H178.019C178.075 26.399 178.328 26.8395 178.778 27.1768C179.228 27.5141 179.781 27.6828 180.437 27.6828C181.037 27.6828 181.496 27.5704 181.814 27.3455C182.152 27.1018 182.32 26.7926 182.32 26.4178C182.32 25.968 182.086 25.64 181.618 25.4339C181.149 25.209 180.39 24.9653 179.34 24.703C178.216 24.4406 177.279 24.1688 176.529 23.8877C175.78 23.5879 175.133 23.1287 174.59 22.5102C174.046 21.873 173.774 21.0203 173.774 19.9521C173.774 19.0525 174.018 18.2373 174.505 17.5064C175.011 16.7567 175.742 16.1664 176.698 15.7353C177.673 15.3043 178.825 15.0887 180.156 15.0887C182.124 15.0887 183.67 15.576 184.794 16.5506C185.937 17.5251 186.593 18.8182 186.762 20.43H182.32C182.245 19.8865 182.002 19.4554 181.589 19.1368C181.196 18.8182 180.671 18.6589 180.015 18.6589C179.453 18.6589 179.022 18.7714 178.722 18.9963C178.422 19.2024 178.272 19.4929 178.272 19.8677C178.272 20.3175 178.506 20.6549 178.975 20.8798C179.462 21.1047 180.212 21.3296 181.224 21.5544C182.386 21.8543 183.332 22.1542 184.063 22.454C184.794 22.7351 185.431 23.2037 185.975 23.8596C186.537 24.4968 186.828 25.3589 186.846 26.4459C186.846 27.3642 186.584 28.1888 186.059 28.9197C185.553 29.6319 184.813 30.1941 183.838 30.6064C182.883 31.0187 181.767 31.2249 180.493 31.2249Z" fill="url(#paint0_linear_455_671)"/>
<circle cx="21" cy="21" r="21" fill="url(#paint1_linear_455_671)"/>
<circle id="circle-small-logo" cx="27" cy="29" r="7" fill="white"/>
<defs>
<linearGradient id="paint0_linear_455_671" x1="58" y1="21" x2="189" y2="21" gradientUnits="userSpaceOnUse">
<stop stop-color="#4985CE"/>
<stop offset="1" stop-color="#75C3E9"/>
</linearGradient>
<linearGradient id="paint1_linear_455_671" x1="21" y1="0" x2="21" y2="42" gradientUnits="userSpaceOnUse">
<stop stop-color="#4985CE"/>
<stop offset="1" stop-color="#75C3E9"/>
</linearGradient>
</defs>
</svg>
