<svg width="179" height="180" viewBox="0 0 179 180" fill="none" xmlns="http://www.w3.org/2000/svg">
<path d="M89.5 169C45.8695 169 10.5 133.63 10.5 90C10.5 46.3695 45.8695 11 89.5 11" stroke="#75C3E9" stroke-width="20.28" stroke-linecap="round"/>
<path d="M89.5 169C133.13 169 168.5 133.63 168.5 90C168.5 46.3695 133.13 11 89.5 11" stroke="#4985CE" stroke-width="20.28" stroke-linecap="round"/>
<path d="M59.5661 96.126C58.7381 96.126 57.9941 95.982 57.3341 95.694C56.6861 95.394 56.1761 94.986 55.8041 94.47C55.4321 93.942 55.2401 93.336 55.2281 92.652H56.9741C57.0341 93.24 57.2741 93.738 57.6941 94.146C58.1261 94.542 58.7501 94.74 59.5661 94.74C60.3461 94.74 60.9581 94.548 61.4021 94.164C61.8581 93.768 62.0861 93.264 62.0861 92.652C62.0861 92.172 61.9541 91.782 61.6901 91.482C61.4261 91.182 61.0961 90.954 60.7001 90.798C60.3041 90.642 59.7701 90.474 59.0981 90.294C58.2701 90.078 57.6041 89.862 57.1001 89.646C56.6081 89.43 56.1821 89.094 55.8221 88.638C55.4741 88.17 55.3001 87.546 55.3001 86.766C55.3001 86.082 55.4741 85.476 55.8221 84.948C56.1701 84.42 56.6561 84.012 57.2801 83.724C57.9161 83.436 58.6421 83.292 59.4581 83.292C60.6341 83.292 61.5941 83.586 62.3381 84.174C63.0941 84.762 63.5201 85.542 63.6161 86.514H61.8161C61.7561 86.034 61.5041 85.614 61.0601 85.254C60.6161 84.882 60.0281 84.696 59.2961 84.696C58.6121 84.696 58.0541 84.876 57.6221 85.236C57.1901 85.584 56.9741 86.076 56.9741 86.712C56.9741 87.168 57.1001 87.54 57.3521 87.828C57.6161 88.116 57.9341 88.338 58.3061 88.494C58.6901 88.638 59.2241 88.806 59.9081 88.998C60.7361 89.226 61.4021 89.454 61.9061 89.682C62.4101 89.898 62.8421 90.24 63.2021 90.708C63.5621 91.164 63.7421 91.788 63.7421 92.58C63.7421 93.192 63.5801 93.768 63.2561 94.308C62.9321 94.848 62.4521 95.286 61.8161 95.622C61.1801 95.958 60.4301 96.126 59.5661 96.126ZM68.1506 87.486V93.3C68.1506 93.78 68.2526 94.122 68.4566 94.326C68.6606 94.518 69.0146 94.614 69.5186 94.614H70.7246V96H69.2486C68.3366 96 67.6526 95.79 67.1966 95.37C66.7406 94.95 66.5126 94.26 66.5126 93.3V87.486H65.2346V86.136H66.5126V83.652H68.1506V86.136H70.7246V87.486H68.1506ZM72.0972 91.032C72.0972 90.024 72.3012 89.142 72.7092 88.386C73.1172 87.618 73.6752 87.024 74.3832 86.604C75.1032 86.184 75.9012 85.974 76.7772 85.974C77.6412 85.974 78.3912 86.16 79.0272 86.532C79.6632 86.904 80.1372 87.372 80.4492 87.936V86.136H82.1052V96H80.4492V94.164C80.1252 94.74 79.6392 95.22 78.9912 95.604C78.3552 95.976 77.6112 96.162 76.7592 96.162C75.8832 96.162 75.0912 95.946 74.3832 95.514C73.6752 95.082 73.1172 94.476 72.7092 93.696C72.3012 92.916 72.0972 92.028 72.0972 91.032ZM80.4492 91.05C80.4492 90.306 80.2992 89.658 79.9992 89.106C79.6992 88.554 79.2912 88.134 78.7752 87.846C78.2712 87.546 77.7132 87.396 77.1012 87.396C76.4892 87.396 75.9312 87.54 75.4272 87.828C74.9232 88.116 74.5212 88.536 74.2212 89.088C73.9212 89.64 73.7712 90.288 73.7712 91.032C73.7712 91.788 73.9212 92.448 74.2212 93.012C74.5212 93.564 74.9232 93.99 75.4272 94.29C75.9312 94.578 76.4892 94.722 77.1012 94.722C77.7132 94.722 78.2712 94.578 78.7752 94.29C79.2912 93.99 79.6992 93.564 79.9992 93.012C80.2992 92.448 80.4492 91.794 80.4492 91.05ZM86.8713 87.486V93.3C86.8713 93.78 86.9733 94.122 87.1773 94.326C87.3813 94.518 87.7353 94.614 88.2393 94.614H89.4453V96H87.9693C87.0573 96 86.3733 95.79 85.9173 95.37C85.4613 94.95 85.2333 94.26 85.2333 93.3V87.486H83.9553V86.136H85.2333V83.652H86.8713V86.136H89.4453V87.486H86.8713ZM92.2759 84.534C91.9639 84.534 91.6999 84.426 91.4839 84.21C91.2679 83.994 91.1599 83.73 91.1599 83.418C91.1599 83.106 91.2679 82.842 91.4839 82.626C91.6999 82.41 91.9639 82.302 92.2759 82.302C92.5759 82.302 92.8279 82.41 93.0319 82.626C93.2479 82.842 93.3559 83.106 93.3559 83.418C93.3559 83.73 93.2479 83.994 93.0319 84.21C92.8279 84.426 92.5759 84.534 92.2759 84.534ZM93.0679 86.136V96H91.4299V86.136H93.0679ZM99.3516 96.162C98.5956 96.162 97.9176 96.036 97.3176 95.784C96.7176 95.52 96.2436 95.16 95.8956 94.704C95.5476 94.236 95.3556 93.702 95.3196 93.102H97.0116C97.0596 93.594 97.2876 93.996 97.6956 94.308C98.1156 94.62 98.6616 94.776 99.3336 94.776C99.9576 94.776 100.45 94.638 100.81 94.362C101.17 94.086 101.35 93.738 101.35 93.318C101.35 92.886 101.158 92.568 100.774 92.364C100.39 92.148 99.7956 91.938 98.9916 91.734C98.2596 91.542 97.6596 91.35 97.1916 91.158C96.7356 90.954 96.3396 90.66 96.0036 90.276C95.6796 89.88 95.5176 89.364 95.5176 88.728C95.5176 88.224 95.6676 87.762 95.9676 87.342C96.2676 86.922 96.6936 86.592 97.2456 86.352C97.7976 86.1 98.4276 85.974 99.1356 85.974C100.228 85.974 101.11 86.25 101.782 86.802C102.454 87.354 102.814 88.11 102.862 89.07H101.224C101.188 88.554 100.978 88.14 100.594 87.828C100.222 87.516 99.7176 87.36 99.0816 87.36C98.4936 87.36 98.0256 87.486 97.6776 87.738C97.3296 87.99 97.1556 88.32 97.1556 88.728C97.1556 89.052 97.2576 89.322 97.4616 89.538C97.6776 89.742 97.9416 89.91 98.2536 90.042C98.5776 90.162 99.0216 90.3 99.5856 90.456C100.294 90.648 100.87 90.84 101.314 91.032C101.758 91.212 102.136 91.488 102.448 91.86C102.772 92.232 102.94 92.718 102.952 93.318C102.952 93.858 102.802 94.344 102.502 94.776C102.202 95.208 101.776 95.55 101.224 95.802C100.684 96.042 100.06 96.162 99.3516 96.162ZM107.262 87.486V93.3C107.262 93.78 107.364 94.122 107.568 94.326C107.772 94.518 108.126 94.614 108.63 94.614H109.836V96H108.36C107.448 96 106.764 95.79 106.308 95.37C105.852 94.95 105.624 94.26 105.624 93.3V87.486H104.346V86.136H105.624V83.652H107.262V86.136H109.836V87.486H107.262ZM112.667 84.534C112.355 84.534 112.091 84.426 111.875 84.21C111.659 83.994 111.551 83.73 111.551 83.418C111.551 83.106 111.659 82.842 111.875 82.626C112.091 82.41 112.355 82.302 112.667 82.302C112.967 82.302 113.219 82.41 113.423 82.626C113.639 82.842 113.747 83.106 113.747 83.418C113.747 83.73 113.639 83.994 113.423 84.21C113.219 84.426 112.967 84.534 112.667 84.534ZM113.459 86.136V96H111.821V86.136H113.459ZM115.638 91.05C115.638 90.03 115.842 89.142 116.25 88.386C116.658 87.618 117.222 87.024 117.942 86.604C118.674 86.184 119.508 85.974 120.444 85.974C121.656 85.974 122.652 86.268 123.432 86.856C124.224 87.444 124.746 88.26 124.998 89.304H123.234C123.066 88.704 122.736 88.23 122.244 87.882C121.764 87.534 121.164 87.36 120.444 87.36C119.508 87.36 118.752 87.684 118.176 88.332C117.6 88.968 117.312 89.874 117.312 91.05C117.312 92.238 117.6 93.156 118.176 93.804C118.752 94.452 119.508 94.776 120.444 94.776C121.164 94.776 121.764 94.608 122.244 94.272C122.724 93.936 123.054 93.456 123.234 92.832H124.998C124.734 93.84 124.206 94.65 123.414 95.262C122.622 95.862 121.632 96.162 120.444 96.162C119.508 96.162 118.674 95.952 117.942 95.532C117.222 95.112 116.658 94.518 116.25 93.75C115.842 92.982 115.638 92.082 115.638 91.05Z" fill="#173152"/>
</svg>
