<svg width="61" height="61" viewBox="0 0 61 61" fill="none" xmlns="http://www.w3.org/2000/svg">
<path d="M39.0591 13.5854L42.5488 20.565C43.0191 21.5303 44.2814 22.4461 45.3456 22.6441L51.6571 23.6836C55.6914 24.3518 56.6319 27.2724 53.7361 30.193L48.8107 35.1184C47.9939 35.9351 47.5237 37.5439 47.796 38.7072L49.2067 44.7958C50.3205 49.5974 47.7465 51.4784 43.5141 48.9539L37.5987 45.4393C36.5344 44.7958 34.7524 44.7958 33.6882 45.4393L27.7727 48.9539C23.5404 51.4537 20.9664 49.5974 22.0801 44.7958L23.4909 38.7072C23.7632 37.5686 23.2929 35.9599 22.4762 35.1184L17.5508 30.193C14.655 27.2972 15.5955 24.3766 19.6299 23.6836L25.9412 22.6441C27.0055 22.4708 28.2678 21.5303 28.738 20.565L32.2279 13.5854C34.0842 9.79856 37.1533 9.79856 39.0591 13.5854Z" stroke="white" stroke-width="3.71258" stroke-linecap="round" stroke-linejoin="round"/>
<path d="M20.7663 13.0656H5.91602" stroke="white" stroke-width="3.71258" stroke-linecap="round" stroke-linejoin="round"/>
<path d="M13.3412 47.7164H5.91602" stroke="white" stroke-width="3.71258" stroke-linecap="round" stroke-linejoin="round"/>
<path d="M8.39107 30.391H5.91602" stroke="white" stroke-width="3.71258" stroke-linecap="round" stroke-linejoin="round"/>
</svg>
